<svg width="89" height="89" viewBox="0 0 89 89" fill="none" xmlns="http://www.w3.org/2000/svg">
<path d="M18.368 48.2083V11.625C18.368 11.3893 18.368 11.2714 18.4413 11.1982C18.5145 11.125 18.6323 11.125 18.868 11.125H36.3292C36.53 11.125 36.6305 11.125 36.7211 11.1619C36.8117 11.1987 36.8836 11.2689 37.0274 11.4091L44.0492 18.2576C44.193 18.3978 44.2649 18.4679 44.3555 18.5048C44.4461 18.5417 44.5465 18.5417 44.7474 18.5417H70.0595C70.3012 18.5417 70.422 18.5417 70.4647 18.6196C70.5074 18.6975 70.4424 18.7993 70.3125 19.003L58.9493 36.8144C58.866 36.9451 58.8243 37.0104 58.8243 37.0833C58.8243 37.1563 58.866 37.2216 58.9493 37.3523L70.3125 55.1636C70.4424 55.3674 70.5074 55.4692 70.4647 55.5471C70.422 55.625 70.3012 55.625 70.0595 55.625H44.7474C44.5465 55.625 44.4461 55.625 44.3555 55.5881C44.2649 55.5513 44.193 55.4811 44.0492 55.3409L37.0274 48.4924C36.8836 48.3522 36.8117 48.2821 36.7211 48.2452C36.6305 48.2083 36.53 48.2083 36.3292 48.2083H18.368ZM18.368 48.2083V70.4583" stroke="#222222" stroke-width="2" stroke-linecap="round"/>
<path d="M18.368 11.625V47.7083C18.368 47.944 18.368 48.0619 18.4413 48.1351C18.5145 48.2083 18.6323 48.2083 18.868 48.2083H36.3292C36.53 48.2083 36.6305 48.2083 36.7211 48.2452C36.8117 48.2821 36.8836 48.3522 37.0274 48.4924L44.0492 55.3409C44.193 55.4811 44.2649 55.5513 44.3555 55.5881C44.4461 55.625 44.5465 55.625 44.7474 55.625H70.0595C70.3012 55.625 70.422 55.625 70.4647 55.5471C70.5074 55.4692 70.4424 55.3674 70.3125 55.1636L58.9493 37.3523L58.9493 37.3522C58.866 37.2216 58.8243 37.1563 58.8243 37.0833C58.8243 37.0104 58.866 36.9451 58.9493 36.8144L70.3125 19.003C70.4424 18.7993 70.5074 18.6975 70.4647 18.6196C70.422 18.5417 70.3012 18.5417 70.0595 18.5417H44.7474C44.5465 18.5417 44.4461 18.5417 44.3555 18.5048C44.2649 18.4679 44.193 18.3978 44.0492 18.2576L37.0274 11.4091L37.0274 11.4091C36.8836 11.2689 36.8117 11.1987 36.7211 11.1619C36.6305 11.125 36.53 11.125 36.3292 11.125H18.868C18.6323 11.125 18.5145 11.125 18.4413 11.1982C18.368 11.2714 18.368 11.3893 18.368 11.625Z" fill="#222222"/>
</svg>
